HIERARCHY
ROOT Hips
{
	OFFSET 0.053599 88.859886 3.107447
	CHANNELS 6 Xposition Yposition Zposition Zrotation Yrotation Xrotation 
	JOINT Spine
	{
		OFFSET -0.000000 8.814246 -2.080107
		CHANNELS 3 Zrotation Yrotation Xrotation
		JOINT Spine1
		{
			OFFSET 0.000000 8.844141 0.000000
			CHANNELS 3 Zrotation Yrotation Xrotation
			JOINT Spine2
			{
				OFFSET -0.000000 11.682268 0.000000
				CHANNELS 3 Zrotation Yrotation Xrotation
				JOINT Spine3
				{
					OFFSET 0.000000 11.746700 0.000000
					CHANNELS 3 Zrotation Yrotation Xrotation
					JOINT Neck
					{
						OFFSET -0.000000 17.658264 -0.000000
						CHANNELS 3 Zrotation Yrotation Xrotation
						JOINT Neck1
						{
							OFFSET -0.000000 5.101515 -0.000000
							CHANNELS 3 Zrotation Yrotation Xrotation
							JOINT Head
							{
								OFFSET 0.000000 5.101515 0.000000
								CHANNELS 3 Zrotation Yrotation Xrotation
								JOINT HeadEnd
								{
									OFFSET 0.000000 11.655085 0.000000
									CHANNELS 3 Zrotation Yrotation Xrotation
									End Site
									{
										OFFSET 0.000000 0.000000 0.000000
									}
								}
							}
						}
					}
					JOINT RightShoulder
					{
						OFFSET -2.625389 11.175210 0.000000
						CHANNELS 3 Zrotation Yrotation Xrotation
						JOINT RightArm
						{
							OFFSET -0.000000 10.434715 -0.000000
							CHANNELS 3 Zrotation Yrotation Xrotation
							JOINT RightForeArm
							{
								OFFSET -0.000000 29.628420 0.000000
								CHANNELS 3 Zrotation Yrotation Xrotation
								JOINT RightHand
								{
									OFFSET -0.000000 22.857611 0.000000
									CHANNELS 3 Zrotation Yrotation Xrotation
									JOINT RightHandThumb1
									{
										OFFSET -2.867323 3.959563 2.944291
										CHANNELS 3 Zrotation Yrotation Xrotation
										JOINT RightHandThumb2
										{
											OFFSET 0.000000 3.350399 0.000000
											CHANNELS 3 Zrotation Yrotation Xrotation
											JOINT RightHandThumb3
											{
												OFFSET 0.000000 3.756509 -0.000000
												CHANNELS 3 Zrotation Yrotation Xrotation
												JOINT RightHandThumb4
												{
													OFFSET 0.000000 3.147345 0.000000
													CHANNELS 3 Zrotation Yrotation Xrotation
													End Site
													{
														OFFSET 0.000000 0.000000 0.000000
													}
												}
											}
										}
									}
									JOINT RightHandIndex1
									{
										OFFSET -0.086752 10.030893 2.345280
										CHANNELS 3 Zrotation Yrotation Xrotation
										JOINT RightHandIndex2
										{
											OFFSET -0.000000 4.061090 0.000000
											CHANNELS 3 Zrotation Yrotation Xrotation
											JOINT RightHandIndex3
											{
												OFFSET -0.000000 3.248873 0.000000
												CHANNELS 3 Zrotation Yrotation Xrotation
												JOINT RightHandIndex4
												{
													OFFSET 0.000000 2.639709 -0.000000
													CHANNELS 3 Zrotation Yrotation Xrotation
													End Site
													{
														OFFSET 0.000000 0.000000 0.000000
													}
												}
											}
										}
									}
									JOINT RightHandMiddle1
									{
										OFFSET 0.104102 9.502952 0.006768
										CHANNELS 3 Zrotation Yrotation Xrotation
										JOINT RightHandMiddle2
										{
											OFFSET 0.000000 4.568727 0.000000
											CHANNELS 3 Zrotation Yrotation Xrotation
											JOINT RightHandMiddle3
											{
												OFFSET 0.000000 3.654981 -0.000000
												CHANNELS 3 Zrotation Yrotation Xrotation
												JOINT RightHandMiddle4
												{
													OFFSET -0.000000 2.741236 -0.000000
													CHANNELS 3 Zrotation Yrotation Xrotation
													End Site
													{
														OFFSET 0.000000 0.000000 0.000000
													}
												}
											}
										}
									}
									JOINT RightHandRing1
									{
										OFFSET 0.086752 8.921708 -2.267442
										CHANNELS 3 Zrotation Yrotation Xrotation
										JOINT RightHandRing2
										{
											OFFSET -0.000000 4.061090 0.000000
											CHANNELS 3 Zrotation Yrotation Xrotation
											JOINT RightHandRing3
											{
												OFFSET 0.000000 3.654981 -0.000000
												CHANNELS 3 Zrotation Yrotation Xrotation
												JOINT RightHandRing4
												{
													OFFSET 0.000000 2.741236 -0.000000
													CHANNELS 3 Zrotation Yrotation Xrotation
													End Site
													{
														OFFSET 0.000000 0.000000 0.000000
													}
												}
											}
										}
									}
									JOINT RightHandPinky1
									{
										OFFSET -0.173504 7.976997 -4.467199
										CHANNELS 3 Zrotation Yrotation Xrotation
										JOINT RightHandPinky2
										{
											OFFSET 0.000000 3.350399 -0.000000
											CHANNELS 3 Zrotation Yrotation Xrotation
											JOINT RightHandPinky3
											{
												OFFSET -0.000000 2.842763 0.000000
												CHANNELS 3 Zrotation Yrotation Xrotation
												JOINT RightHandPinky4
												{
													OFFSET -0.000000 2.639709 0.000000
													CHANNELS 3 Zrotation Yrotation Xrotation
													End Site
													{
														OFFSET 0.000000 0.000000 0.000000
													}
												}
											}
										}
									}
									JOINT RightForeArmEnd
									{
										OFFSET 0.000000 0.000000 0.000000
										CHANNELS 3 Zrotation Yrotation Xrotation
										End Site
										{
											OFFSET 0.000000 0.000000 0.000000
										}
									}
								}
								JOINT RightArmEnd
								{
									OFFSET 0.000000 0.000000 0.000000
									CHANNELS 3 Zrotation Yrotation Xrotation
									End Site
									{
										OFFSET 0.000000 0.000000 0.000000
									}
								}
							}
						}
					}
					JOINT LeftShoulder
					{
						OFFSET 2.625389 11.175210 0.000000
						CHANNELS 3 Zrotation Yrotation Xrotation
						JOINT LeftArm
						{
							OFFSET 0.000000 10.813635 -0.000000
							CHANNELS 3 Zrotation Yrotation Xrotation
							JOINT LeftForeArm
							{
								OFFSET 0.000000 28.724781 0.000000
								CHANNELS 3 Zrotation Yrotation Xrotation
								JOINT LeftHand
								{
									OFFSET 0.644384 25.716167 -0.328871
									CHANNELS 3 Zrotation Yrotation Xrotation
									JOINT LeftHandThumb1
									{
										OFFSET 2.867323 3.959563 2.944291
										CHANNELS 3 Zrotation Yrotation Xrotation
										JOINT LeftHandThumb2
										{
											OFFSET 0.000000 3.350399 0.000000
											CHANNELS 3 Zrotation Yrotation Xrotation
											JOINT LeftHandThumb3
											{
												OFFSET -0.000000 3.756509 0.000000
												CHANNELS 3 Zrotation Yrotation Xrotation
												JOINT LeftHandThumb4
												{
													OFFSET -0.000000 3.100000 0.000000
													CHANNELS 3 Zrotation Yrotation Xrotation
													End Site
													{
														OFFSET 0.000000 0.000000 0.000000
													}
												}
											}
										}
									}
									JOINT LeftHandIndex1
									{
										OFFSET 0.086752 10.030893 2.345280
										CHANNELS 3 Zrotation Yrotation Xrotation
										JOINT LeftHandIndex2
										{
											OFFSET -0.000000 4.061090 -0.000000
											CHANNELS 3 Zrotation Yrotation Xrotation
											JOINT LeftHandIndex3
											{
												OFFSET 0.000000 3.248873 -0.000000
												CHANNELS 3 Zrotation Yrotation Xrotation
												JOINT LeftHandIndex4
												{
													OFFSET 0.000000 2.639709 -0.000000
													CHANNELS 3 Zrotation Yrotation Xrotation
													End Site
													{
														OFFSET 0.000000 0.000000 0.000000
													}
												}
											}
										}
									}
									JOINT LeftHandMiddle1
									{
										OFFSET -0.104102 9.502952 0.006768
										CHANNELS 3 Zrotation Yrotation Xrotation
										JOINT LeftHandMiddle2
										{
											OFFSET -0.000000 4.568727 -0.000000
											CHANNELS 3 Zrotation Yrotation Xrotation
											JOINT LeftHandMiddle3
											{
												OFFSET 0.000000 3.654981 0.000000
												CHANNELS 3 Zrotation Yrotation Xrotation
												JOINT LeftHandMiddle4
												{
													OFFSET 0.000000 2.741236 -0.000000
													CHANNELS 3 Zrotation Yrotation Xrotation
													End Site
													{
														OFFSET 0.000000 0.000000 0.000000
													}
												}
											}
										}
									}
									JOINT LeftHandRing1
									{
										OFFSET -0.086752 8.921708 -2.267442
										CHANNELS 3 Zrotation Yrotation Xrotation
										JOINT LeftHandRing2
										{
											OFFSET 0.000000 4.061090 0.000000
											CHANNELS 3 Zrotation Yrotation Xrotation
											JOINT LeftHandRing3
											{
												OFFSET 0.000000 3.654981 0.000000
												CHANNELS 3 Zrotation Yrotation Xrotation
												JOINT LeftHandRing4
												{
													OFFSET 0.000000 2.741236 0.000000
													CHANNELS 3 Zrotation Yrotation Xrotation
													End Site
													{
														OFFSET 0.000000 0.000000 0.000000
													}
												}
											}
										}
									}
									JOINT LeftHandPinky1
									{
										OFFSET 0.173504 7.976997 -4.467199
										CHANNELS 3 Zrotation Yrotation Xrotation
										JOINT LeftHandPinky2
										{
											OFFSET -0.000000 3.350399 -0.000000
											CHANNELS 3 Zrotation Yrotation Xrotation
											JOINT LeftHandPinky3
											{
												OFFSET 0.000000 2.842763 0.000000
												CHANNELS 3 Zrotation Yrotation Xrotation
												JOINT LeftHandPinky4
												{
													OFFSET -0.000000 2.639709 -0.000000
													CHANNELS 3 Zrotation Yrotation Xrotation
													End Site
													{
														OFFSET 0.000000 0.000000 0.000000
													}
												}
											}
										}
									}
									JOINT LeftForeArmEnd
									{
										OFFSET 0.000000 0.000000 0.000000
										CHANNELS 3 Zrotation Yrotation Xrotation
										End Site
										{
											OFFSET 0.000000 0.000000 0.000000
										}
									}
								}
								JOINT LeftArmEnd
								{
									OFFSET 0.000000 0.000000 0.000000
									CHANNELS 3 Zrotation Yrotation Xrotation
									End Site
									{
										OFFSET 0.000000 0.000000 0.000000
									}
								}
							}
						}
					}
				}
			}
		}
	}
	JOINT RightUpLeg
	{
		OFFSET -11.289943 0.000000 0.000000
		CHANNELS 3 Zrotation Yrotation Xrotation
		JOINT RightLeg
		{
			OFFSET 0.000000 -38.200325 0.000000
			CHANNELS 3 Zrotation Yrotation Xrotation
			JOINT RightFoot
			{
				OFFSET -0.000000 -39.900856 -0.000000
				CHANNELS 3 Zrotation Yrotation Xrotation
				JOINT RightToeBase
				{
					OFFSET 0.000000 0.000000 15.261641
					CHANNELS 3 Zrotation Yrotation Xrotation
					JOINT RightToeBaseEnd
					{
						OFFSET 0.000000 0.000000 7.370709
						CHANNELS 3 Zrotation Yrotation Xrotation
						End Site
						{
							OFFSET 0.000000 0.000000 0.000000
						}
					}
				}
				JOINT RightLegEnd
				{
					OFFSET 0.000000 0.000000 0.000000
					CHANNELS 3 Zrotation Yrotation Xrotation
					End Site
					{
						OFFSET 0.000000 0.000000 0.000000
					}
				}
			}
			JOINT RightUpLegEnd
			{
				OFFSET 0.000000 0.000000 0.000000
				CHANNELS 3 Zrotation Yrotation Xrotation
				End Site
				{
					OFFSET 0.000000 0.000000 0.000000
				}
			}
		}
	}
	JOINT LeftUpLeg
	{
		OFFSET 11.315661 -0.000000 0.000000
		CHANNELS 3 Zrotation Yrotation Xrotation
		JOINT LeftLeg
		{
			OFFSET -0.000000 -38.200325 -0.000000
			CHANNELS 3 Zrotation Yrotation Xrotation
			JOINT LeftFoot
			{
				OFFSET 0.000000 -39.900856 -0.000000
				CHANNELS 3 Zrotation Yrotation Xrotation
				JOINT LeftToeBase
				{
					OFFSET -0.000000 -0.000000 15.261641
					CHANNELS 3 Zrotation Yrotation Xrotation
					JOINT LeftToeBaseEnd
					{
						OFFSET 0.000000 -0.000000 7.539996
						CHANNELS 3 Zrotation Yrotation Xrotation
						End Site
						{
							OFFSET 0.000000 0.000000 0.000000
						}
					}
				}
				JOINT LeftLegEnd
				{
					OFFSET 0.000000 0.000000 0.000000
					CHANNELS 3 Zrotation Yrotation Xrotation
					End Site
					{
						OFFSET 0.000000 0.000000 0.000000
					}
				}
			}
			JOINT LeftUpLegEnd
			{
				OFFSET 0.000000 0.000000 0.000000
				CHANNELS 3 Zrotation Yrotation Xrotation
				End Site
				{
					OFFSET 0.000000 0.000000 0.000000
				}
			}
		}
	}
}
MOTION
Frames: 5
Frame Time: 0.016667
0.053599 88.859886 3.107447 0.490481 0.055862 -6.497332 0.023754 -0.000539 5.886370 -1.012250 0.067046 0.861970 0.478071 -2.416792 3.829567 0.155030 -0.780500 1.929224 2.330515 0.848112 5.016849 0.371683 2.117863 -3.221864 -0.714533 -0.852149 -18.222401 0.000000 0.000000 0.000000 92.418694 -0.394880 9.707912 65.456573 -33.431271 5.091406 -0.130291 12.440493 22.353239 6.882370 13.743960 -6.458578 19.861429 30.097643 62.040974 -8.462701 -12.164348 -20.450144 -6.325801 -8.139122 -14.332924 0.000000 0.000000 0.000000 12.621688 -10.712396 0.231899 8.905269 0.376633 1.323778 8.902945 -0.111869 1.243825 0.000000 0.000000 0.000000 11.194713 -5.446730 -1.239449 7.889823 0.455857 0.481039 7.889222 -0.037052 0.412494 0.000000 0.000000 0.000000 10.912717 2.564455 -1.535874 7.825817 -0.947299 -0.611652 7.824722 0.070320 -0.477096 0.000000 0.000000 0.000000 9.631022 11.185607 -2.805182 7.161172 -1.900893 -1.652070 7.157181 0.085565 -1.400512 0.000000 0.000000 0.000000 0.000000 0.000000 0.000000 0.000000 0.000000 0.000000 -90.370071 0.051974 5.208683 -71.842018 19.306828 -7.574249 -0.664994 -8.642401 40.885647 -0.139946 -25.486511 -15.477552 -20.250540 -29.996990 61.691063 8.807010 12.918287 -21.553112 6.618044 8.635277 -15.110494 0.000000 0.000000 0.000000 -16.168392 -5.636370 -1.918335 -11.569428 0.324957 -1.715407 -11.569072 -0.164917 -1.615128 0.000000 0.000000 0.000000 -15.643335 -0.758781 -1.694552 -11.169063 0.440303 -0.678956 -11.168735 -0.058746 -0.582722 0.000000 0.000000 0.000000 -18.003109 7.607869 -1.025503 -12.703986 -0.874371 0.992852 -12.702737 0.099213 0.772902 0.000000 0.000000 0.000000 -18.852142 16.262062 -0.245862 -13.102126 -1.657223 2.980032 -13.096694 0.281077 2.526406 0.000000 0.000000 0.000000 0.000000 0.000000 0.000000 0.000000 0.000000 0.000000 -1.045058 -10.518975 11.869204 -0.078405 -0.635030 3.758801 -2.197730 -7.901679 18.681496 -0.890004 0.828132 -18.870453 0.000000 0.000000 0.000000 0.000000 0.000000 0.000000 0.000000 0.000000 0.000000 -1.784023 -6.543907 7.474547 0.053202 0.398207 7.545935 3.843466 -1.785134 17.966772 0.194973 -0.390531 -20.817129 0.000000 0.000000 0.000000 0.000000 0.000000 0.000000 0.000000 0.000000 0.000000 
0.110445 88.909424 2.908460 -0.288621 -0.304620 -7.316190 1.308363 -0.188466 6.647221 -0.972470 0.121890 2.663893 0.760619 -1.617046 1.572432 -0.886261 -0.166662 3.088788 1.351636 2.288045 3.093472 0.343847 2.970915 -3.823667 -1.050194 -0.574636 -18.460333 0.000000 0.000000 0.000000 92.978004 -0.439892 9.596854 64.997894 -32.138618 3.982368 -0.111206 13.108578 23.248333 6.836466 13.133988 -6.862725 19.889002 30.087210 62.059731 -8.453296 -12.106796 -20.478920 -6.308181 -8.114359 -14.310269 0.000000 0.000000 0.000000 12.004783 -10.744235 -0.272333 8.939804 0.333179 1.326493 8.730560 -0.107857 1.261347 0.000000 0.000000 0.000000 10.845624 -5.350239 -1.071536 7.605232 0.422543 0.516875 7.974209 -0.052971 0.442366 0.000000 0.000000 0.000000 10.305911 2.577254 -0.820914 7.417969 -0.889354 -0.850451 7.460618 0.067290 -0.624830 0.000000 0.000000 0.000000 9.599066 11.049257 -1.780932 7.123948 -1.649753 -2.420908 6.711097 0.278156 -2.046141 0.000000 0.000000 0.000000 0.000000 0.000000 0.000000 0.000000 0.000000 0.000000 -89.914001 0.121855 6.027907 -71.667984 19.593708 -6.550651 -1.216905 -9.091815 40.391262 1.845347 -23.285376 -16.082491 -20.261063 -29.960630 61.593193 8.906715 12.974795 -21.727242 6.667115 8.683805 -15.188111 0.000000 0.000000 0.000000 -17.242701 -5.490376 -0.141122 -11.003620 0.295183 -1.384495 -11.125383 -0.168411 -1.277738 0.000000 0.000000 0.000000 -16.579245 -0.503440 -0.925874 -10.893494 0.409208 -0.586172 -10.810683 -0.066378 -0.470247 0.000000 0.000000 0.000000 -18.740076 7.540877 -0.746811 -12.403148 -0.869408 0.844368 -12.380611 0.083793 0.655544 0.000000 0.000000 0.000000 -20.008026 15.949455 -1.147712 -12.967940 -1.550103 2.634235 -12.824015 0.343352 2.241974 0.000000 0.000000 0.000000 0.000000 0.000000 0.000000 0.000000 0.000000 0.000000 0.161504 -9.174011 11.032969 -0.048311 -0.640307 6.170014 -2.894525 -9.084934 17.703941 -0.792056 0.755338 -19.040987 0.000000 0.000000 0.000000 0.000000 0.000000 0.000000 0.000000 0.000000 0.000000 -1.532004 -6.383304 7.167996 0.057610 0.362856 8.521592 3.737824 -0.610334 16.989103 0.386626 -0.471891 -20.518152 0.000000 0.000000 0.000000 0.000000 0.000000 0.000000 0.000000 0.000000 0.000000 
0.112113 88.891891 2.895771 -0.313532 -0.367621 -7.388741 1.306612 -0.177918 6.687829 -0.913628 0.109448 2.631995 0.755679 -1.580123 1.680619 -0.860836 -0.137378 3.129563 1.298583 2.210472 3.025675 0.333953 2.897929 -3.825598 -1.063215 -0.608056 -18.426920 0.000000 0.000000 0.000000 92.881226 -0.440573 9.534234 64.994003 -32.326141 4.025503 -0.069822 13.180968 23.326952 6.653289 12.786201 -6.835754 19.876247 30.088177 62.060429 -8.454761 -12.095578 -20.464691 -6.309329 -8.103694 -14.300917 0.000000 0.000000 0.000000 11.993170 -10.741223 -0.294155 8.964026 0.336630 1.310139 8.767535 -0.102714 1.243930 0.000000 0.000000 0.000000 10.869704 -5.343982 -1.057309 7.643445 0.422636 0.510087 8.013439 -0.051805 0.437136 0.000000 0.000000 0.000000 10.351882 2.562516 -0.775904 7.491905 -0.889795 -0.841750 7.538019 0.064525 -0.615774 0.000000 0.000000 0.000000 9.597701 11.029510 -1.672318 7.138099 -1.653800 -2.406605 6.745770 0.272378 -2.025876 0.000000 0.000000 0.000000 0.000000 0.000000 0.000000 0.000000 0.000000 0.000000 -89.869461 0.123195 6.064961 -71.818398 19.735012 -6.529387 -1.209054 -9.136295 40.440102 1.977768 -23.031137 -16.065205 -20.250467 -29.967566 61.607536 8.884844 12.948437 -21.688683 6.651927 8.663679 -15.157317 0.000000 0.000000 0.000000 -17.142231 -5.535924 -0.219015 -11.073640 0.296570 -1.368016 -11.178452 -0.164798 -1.265925 0.000000 0.000000 0.000000 -16.469627 -0.533196 -0.981199 -10.970909 0.409482 -0.583225 -10.884933 -0.066462 -0.468304 0.000000 0.000000 0.000000 -18.694408 7.532838 -0.809987 -12.491440 -0.869801 0.843503 -12.453582 0.083304 0.653827 0.000000 0.000000 0.000000 -20.001553 15.949017 -1.217404 -13.013298 -1.553675 2.611481 -12.847780 0.339946 2.236099 0.000000 0.000000 0.000000 0.000000 0.000000 0.000000 0.000000 0.000000 0.000000 0.166987 -9.119838 11.133734 -0.048590 -0.642659 6.105083 -2.846850 -9.105441 17.734362 -0.793899 0.754460 -19.042709 0.000000 0.000000 0.000000 0.000000 0.000000 0.000000 0.000000 0.000000 0.000000 -1.507329 -6.331940 7.149750 0.056502 0.353211 8.614751 3.743685 -0.594157 16.991259 0.370463 -0.476827 -20.546659 0.000000 0.000000 0.000000 0.000000 0.000000 0.000000 0.000000 0.000000 0.000000 
0.116158 88.879120 2.898151 -0.329589 -0.423148 -7.475440 1.311862 -0.169566 6.689217 -0.900195 0.110194 2.617322 0.768157 -1.560223 1.758236 -0.846864 -0.107256 3.188136 1.249742 2.177047 2.991532 0.347443 2.866883 -3.812120 -1.062685 -0.623915 -18.414034 0.000000 0.000000 0.000000 92.794632 -0.447924 9.492850 65.104012 -32.197632 3.903616 -0.065384 13.249387 23.524075 6.649192 12.504058 -6.773811 19.887022 30.086210 62.044903 -8.467362 -12.129727 -20.510996 -6.319915 -8.120288 -14.332645 0.000000 0.000000 0.000000 12.078369 -10.767697 -0.296252 9.072701 0.340324 1.292459 8.882829 -0.098683 1.225941 0.000000 0.000000 0.000000 10.962965 -5.357756 -1.036467 7.748819 0.423924 0.502754 8.118773 -0.050100 0.430553 0.000000 0.000000 0.000000 10.432194 2.554866 -0.713030 7.597511 -0.891168 -0.835075 7.643712 0.062760 -0.608709 0.000000 0.000000 0.000000 9.614546 11.035913 -1.540128 7.185615 -1.656235 -2.402662 6.807798 0.270898 -2.021252 0.000000 0.000000 0.000000 0.000000 0.000000 0.000000 0.000000 0.000000 0.000000 -89.835449 0.127751 6.080325 -71.961700 19.758842 -6.532794 -1.173842 -9.186837 40.472260 1.977218 -22.832603 -15.881880 -20.257349 -29.969440 61.605736 8.880717 12.945341 -21.701479 6.650054 8.666808 -15.160378 0.000000 0.000000 0.000000 -17.139488 -5.564306 -0.187329 -11.120347 0.298371 -1.353248 -11.207412 -0.162047 -1.254733 0.000000 0.000000 0.000000 -16.449371 -0.547098 -0.947569 -11.023801 0.409827 -0.578238 -10.943810 -0.066287 -0.464120 0.000000 0.000000 0.000000 -18.731249 7.534200 -0.755934 -12.552703 -0.870881 0.843973 -12.516209 0.082563 0.652459 0.000000 0.000000 0.000000 -20.078249 15.951304 -1.181898 -13.065646 -1.554533 2.610502 -12.876244 0.342473 2.243099 0.000000 0.000000 0.000000 0.000000 0.000000 0.000000 0.000000 0.000000 0.000000 0.157910 -9.074821 11.239317 -0.048587 -0.640707 6.094603 -2.807626 -9.107629 17.750036 -0.795659 0.753119 -19.042015 0.000000 0.000000 0.000000 0.000000 0.000000 0.000000 0.000000 0.000000 0.000000 -1.496295 -6.288229 7.141922 0.056100 0.350339 8.728596 3.759660 -0.568383 16.975853 0.362952 -0.480148 -20.554256 0.000000 0.000000 0.000000 0.000000 0.000000 0.000000 0.000000 0.000000 0.000000 
0.122014 88.869301 2.903810 -0.347260 -0.469362 -7.559216 1.324063 -0.161579 6.678600 -0.894074 0.113100 2.606442 0.773099 -1.527854 1.823126 -0.840838 -0.080821 3.239470 1.171447 2.180990 3.028459 0.367226 2.852446 -3.771514 -1.052332 -0.635787 -18.435904 0.000000 0.000000 0.000000 92.740829 -0.448727 9.488289 65.294708 -32.002769 3.711753 -0.070249 13.370169 23.705032 6.630050 12.296510 -6.664587 19.906616 30.081196 62.020245 -8.487645 -12.181523 -20.580576 -6.337732 -8.149858 -14.378502 0.000000 0.000000 0.000000 12.240893 -10.806088 -0.263674 9.198610 0.349257 1.263528 9.013107 -0.089275 1.199987 0.000000 0.000000 0.000000 11.131721 -5.387588 -0.984813 7.871778 0.428210 0.490336 8.241653 -0.046150 0.419965 0.000000 0.000000 0.000000 10.590909 2.531142 -0.621006 7.718771 -0.897215 -0.818664 7.760710 0.057764 -0.594674 0.000000 0.000000 0.000000 9.695198 11.029777 -1.390402 7.258407 -1.672582 -2.364720 6.890136 0.257885 -1.989212 0.000000 0.000000 0.000000 0.000000 0.000000 0.000000 0.000000 0.000000 0.000000 -89.810333 0.123295 6.092669 -72.028114 19.789274 -6.499101 -1.145650 -9.232327 40.546894 1.888471 -22.700527 -15.715902 -20.253279 -29.970053 61.606560 8.883296 12.925774 -21.696791 6.647168 8.656631 -15.152737 0.000000 0.000000 0.000000 -17.147110 -5.576121 -0.084173 -11.120149 0.308883 -1.315843 -11.193251 -0.150516 -1.222644 0.000000 0.000000 0.000000 -16.445293 -0.552703 -0.847568 -11.023024 0.413961 -0.562762 -10.953697 -0.062707 -0.451547 0.000000 0.000000 0.000000 -18.756447 7.526989 -0.634846 -12.565383 -0.877789 0.828929 -12.524946 0.077221 0.640213 0.000000 0.000000 0.000000 -20.133411 15.936956 -1.089277 -13.075440 -1.572846 2.563459 -12.863502 0.328835 2.210537 0.000000 0.000000 0.000000 0.000000 0.000000 0.000000 0.000000 0.000000 0.000000 0.150455 -9.031580 11.336082 -0.048566 -0.637929 6.100091 -2.783129 -9.073211 17.755816 -0.794784 0.749287 -19.036858 0.000000 0.000000 0.000000 0.000000 0.000000 0.000000 0.000000 0.000000 0.000000 -1.491600 -6.267300 7.148819 0.055991 0.347479 8.825542 3.768430 -0.520962 16.964310 0.361504 -0.480578 -20.557123 0.000000 0.000000 0.000000 0.000000 0.000000 0.000000 0.000000 0.000000 0.000000 
